<mxfile host="app.diagrams.net" agent="Mozilla/5.0 (Windows NT 10.0; Win64; x64) AppleWebKit/537.36 (KHTML, like Gecko) Chrome/140.0.0.0 Safari/537.36" version="24.8.3">
  <diagram name="Halaman-1" id="V48RQDG-V_FTpqc4mD0t">
    <mxGraphModel dx="794" dy="446" grid="1" gridSize="10" guides="1" tooltips="1" connect="1" arrows="1" fold="1" page="1" pageScale="1" pageWidth="827" pageHeight="1169" math="0" shadow="0">
      <root>
        <mxCell id="0" />
        <mxCell id="1" parent="0" />
        <mxCell id="Rb4fOkXDFQsrh_0LuPgM-1" value="" style="rounded=0;whiteSpace=wrap;html=1;" vertex="1" parent="1">
          <mxGeometry x="120" y="120" width="560" height="200" as="geometry" />
        </mxCell>
        <mxCell id="Rb4fOkXDFQsrh_0LuPgM-2" value="" style="rounded=0;whiteSpace=wrap;html=1;" vertex="1" parent="1">
          <mxGeometry x="120" y="320" width="560" height="200" as="geometry" />
        </mxCell>
        <mxCell id="Rb4fOkXDFQsrh_0LuPgM-3" value="SUPPORT&amp;nbsp;" style="rounded=0;whiteSpace=wrap;html=1;fontStyle=1;rotation=-90;" vertex="1" parent="1">
          <mxGeometry y="200" width="200" height="40" as="geometry" />
        </mxCell>
        <mxCell id="Rb4fOkXDFQsrh_0LuPgM-4" value="PRIMARY" style="rounded=0;whiteSpace=wrap;html=1;fontStyle=1;rotation=-90;" vertex="1" parent="1">
          <mxGeometry y="400" width="200" height="40" as="geometry" />
        </mxCell>
        <mxCell id="Rb4fOkXDFQsrh_0LuPgM-5" value="" style="triangle;whiteSpace=wrap;html=1;" vertex="1" parent="1">
          <mxGeometry x="680" y="120" width="80" height="400" as="geometry" />
        </mxCell>
      </root>
    </mxGraphModel>
  </diagram>
</mxfile>
